<svg id="图层_1_复制_3" data-name="图层 1_复制 3" xmlns="http://www.w3.org/2000/svg" viewBox="0 0 2369.14 473.89"><defs><style>.cls-1{fill:#879dab;}.cls-2{fill:#326273;}</style></defs><g id="Symbol"><path class="cls-1" d="M220.35,478.5C179,474.53,143,462,109.5,440a241.65,241.65,0,0,1-60.75-57.82c-20.7-28.05-35.62-63.75-41.92-100.2C2,254.1,2.85,219.23,9,191.1c11.63-53.4,41.4-101,84.75-135.75,33.75-27,76.58-44.17,123-49.42,4.35-.45,15.15-.9,24-.9a227.52,227.52,0,0,1,56.7,6.52c67.65,16.5,126,63.08,155.93,124.58,22.72,46.65,30.15,100,20.92,150.37-6.75,37.2-23.47,73.8-47.55,104.25-8.32,10.5-28.35,30.3-38.92,38.48-34.2,26.4-71.78,42-116.18,48.22C262.2,478.73,229.8,479.4,220.35,478.5ZM271.88,462c5.77-.82,14.17-2.4,18.75-3.45,9.52-2.17,25.87-7.05,25.87-7.72,0-.3-25.57-14.1-56.77-30.68L203,389.93l-3.07,1.65a19.64,19.64,0,0,1-5.93,2.17l-3,.38-11.1,27.75c-6.15,15.3-11.25,28.27-11.47,28.95-.75,2.17,24.37,8.92,42.75,11.47,12.67,1.8,13.05,1.8,32.25,1.58C257.1,463.65,263.85,463.28,271.88,462ZM175,421.05l11.77-29-1.8-2.1a17,17,0,0,1-2.7-4.8c-.45-1.43-1.27-2.63-1.72-2.63s-28.65-4.05-62.55-8.92S56.25,365,56.25,365.25s3.23,4.65,7.13,9.9a220.47,220.47,0,0,0,73.5,63.3c6.75,3.68,24.07,11.48,25.57,11.55C162.9,450,168.53,437,175,421.05Zm152,26,2.77-1.5,9.68-33,9.6-33-2.63-2.93a21.23,21.23,0,0,1-2.92-3.75c-.23-.6-21.75,1-69.68,5-58.12,4.88-69.37,6-69.6,6.9s16.73,10.05,58.88,32.4c32.47,17.1,59.55,31.2,60.07,31.28A14.61,14.61,0,0,0,326.93,447.08Zm15.3-6.9c31.5-15.83,63.75-45,85.27-77,2.55-3.82,4.5-7.12,4.28-7.35s-60.38,11.78-64.43,12.9a1.83,1.83,0,0,0-1.35,1.58c0,4.35-5.85,10-10.27,10-1.35,0-2.48.15-2.48.38s-3.9,13.8-8.7,30.22-8.77,30.38-9,31.13-.22,1.27.08,1.27S338.78,441.83,342.23,440.18Zm-68.48-67.05c37.05-3.08,67.8-5.63,68.4-5.63s1.8-1.72,2.7-3.82l1.8-3.75L334,339.75l-12.6-20.25h-3.3a16.61,16.61,0,0,1-6.45-1.57l-3.15-1.58L257.55,346.5c-28,16.65-51.6,30.68-52.42,31.2-1.35,1-1.35,1.05-.08,1.05C205.8,378.75,236.7,376.2,273.75,373.13Zm-88.12,1.35,3.6-3.6L186.9,354c-1.35-9.3-4.5-31.27-7.05-48.9L175.2,273h-3.3a11.48,11.48,0,0,1-4.57-.75c-1.2-.6-11,6.53-58.28,42.45C77.7,338.48,52,358.05,51.83,358.2s0,.68.37,1.05c.6.6,122.48,18.53,127.5,18.68C181.58,378,182.85,377.25,185.63,374.48Zm68.62-31.05L306,312.6V307l-11-3.45c-6.15-1.95-34-11.1-61.88-20.33l-50.7-16.72-1.65,2.25-1.65,2.17,7.35,50.18c6.15,41.77,7.58,50.17,8.55,50.17a12.73,12.73,0,0,1,3.75,1.43,13,13,0,0,0,3.23,1.5C202.28,374.25,225.83,360.38,254.25,343.43Zm146.93,13.12c18.82-4,34.27-7.27,34.27-7.35.68-.67,9.23-18.52,11.48-24a221.11,221.11,0,0,0,15.67-67.57l.68-9.75L446,227.4c-16.8-19.87-17.4-20.47-19.8-20.25l-2.55.23-31.35,76-31.42,76,1.95,2.25c1.12,1.2,2.47,2.17,3.07,2.17S382.35,360.53,401.18,356.55Zm-44.48.15c.45-.37,60.3-146.17,60.15-146.4S396.3,230.7,371.48,256l-45,45.9,1,2.4c1.5,3.45,1.28,6.15-.67,9.6L325.05,317l12.75,20.33,12.83,20.4,3-.45A20.53,20.53,0,0,0,356.7,356.7ZM106.13,310.88c30.15-23,55-42.08,55.27-42.3,2.33-1.95-2.85-2.33-71-4.88-38.7-1.42-70.58-2.47-70.8-2.25s.45,5.78,1.35,12.38c3.67,25.95,12.15,52,24.3,73.95,3.3,6.15,3.9,6.82,5,5.92Zm203.25-10.65a31,31,0,0,1,3.6-2.85c1.12-.68,1-4.8-1.73-52.13-1.65-28.27-3-51.45-3-51.52s-.6-.23-1.42-.23a7,7,0,0,1-3.38-1.57l-2-1.58-25.65,15c-14.1,8.25-40.65,23.78-59,34.5s-33.37,20-33.37,20.48,23.4,8.7,61.5,21.37c33.82,11.25,61.65,20.4,61.8,20.48A12.18,12.18,0,0,0,309.38,300.23Zm44.25-31.88,46.72-47.17,16.73-16.88L415.8,202l-1.35-2.25-43.87-6.15c-24.15-3.38-45.15-6.38-46.58-6.6-2.32-.3-2.77-.08-4,2a10.57,10.57,0,0,1-4,3.53c-1.42.67-2.55,1.57-2.55,2s1.2,23.7,2.78,51.6L319.05,297l1.95.68a19.46,19.46,0,0,0,2.25.75C323.48,298.5,337.13,284.93,353.63,268.35Zm-194-8.55c-.15-.67-16.8-13.35-37-28.12l-36.9-26.93L82.8,206a11.71,11.71,0,0,1-6.3.75c-1.87-.22-4.12-.52-5-.6-1.2-.15-8,5.7-27.15,23.7C29,244.2,18.75,254.33,18.75,255.15c0,1.2.75,1.35,6.23,1.43,3.37,0,32.32,1,64.27,2.1C163.05,261.38,159.9,261.3,159.6,259.8Zm4.43-6.6,1.65-1.72-7.8-35c-4.35-19.2-7.88-35.1-7.88-35.25a6.9,6.9,0,0,0-2.4-.75,13.94,13.94,0,0,1-4.87-2.4l-2.55-2-25.43,9.15L89.4,194.4l-.52,3.38c-.38,2.77-.23,3.52.9,4.35.75.52,17.17,12.67,36.6,26.92S161.78,255,162,255A7.7,7.7,0,0,0,164,253.2ZM240,221c31.58-18.37,57.68-33.9,58.13-34.5s.52-1.35.22-1.57-31.27-3.08-69-6.3l-68.47-5.78-1.2,1.95a13.76,13.76,0,0,1-3.38,3.53l-2.1,1.57,7.8,34.88,7.88,34.87,3.22.53a11.15,11.15,0,0,1,5.63,2.62c1.35,1.2,2.77,2.1,3.15,1.95S208.43,239.4,240,221ZM67,200.25c-.53-5.32-.3-7.35.75-9.45l1.12-2.25L53.4,170,38,151.35l-2,4.43c-10.5,23.55-17.1,55-17.18,81.45v10.35L43,224.85C63.23,205.8,67.13,201.83,67,200.25ZM462.75,227.7c-1.27-20.25-4.35-36.67-10.12-54.07-2.85-8.78-10.05-26.25-10.5-25.73-.08.15-2.63,8.78-5.63,19.2l-5.4,19,1.95,1.87a10.89,10.89,0,0,1,1.13,14.18c-1.58,2-1.58,2-.15,3.6.82.9,7.65,9,15.22,18s13.8,16.2,13.95,16.05S463.13,234.23,462.75,227.7ZM414.6,191.18l1.58-3.08L382,129.45c-18.83-32.17-34.58-59-35-59.55-.67-.67-1.42-.75-3.15-.15l-2.17.75-13.05,50.7-13.05,50.63,2.62,2.77a16,16,0,0,1,3.38,5l.75,2.25,43.8,6.15c24.07,3.3,44.55,6.15,45.37,6.15C412.65,194.25,413.48,193.43,414.6,191.18ZM113.48,180.3c22.57-8.17,24.52-9,24.52-10.65a15,15,0,0,1,1.13-4.35l1.12-2.7-30.82-35.17c-17-19.43-31-35.1-31.13-34.95s.08,16.42.45,36.22.75,40.35.75,45.75v9.9l2.18.9a13.67,13.67,0,0,1,3.9,2.7c1,1.05,2.1,1.73,2.55,1.58S99.9,185.25,113.48,180.3Zm-38.78-31c-.22-19.65-.67-39.53-.9-44.18-.6-10.05-.15-10.12-9,1.5a243.42,243.42,0,0,0-20.4,32.1l-4.57,8.63L56,166.65c13.58,16.2,16.35,19.13,17.63,18.83l1.65-.45Zm352.13,34.5c.22-.23,3.22-10,6.6-21.68L439.58,141l-4.65-8.1a262.7,262.7,0,0,0-19.88-29.4c-10.5-13.2-38.55-39.6-44.62-41.85a59.83,59.83,0,0,0-9.75-1.27l-7.88-.53-1.2,3-1.2,3,34.65,59.7,34.58,59.7,3.37-.45C424.88,184.5,426.6,184.13,426.83,183.83Zm-130.2-5.18c-.45-.37-27.08-14.4-59.25-31.27s-60.45-31.65-62.85-32.93c-3.9-2.1-4.43-2.17-5.25-1.12-1.28,1.65-5.85,4.42-7.43,4.42-1.42,0-1.2-1-5.1,22.5-2.17,12.68-2.85,18.45-2.25,18.6,2,.68,4.65,3.75,5.55,6.53.83,2.4,1.43,3.07,3.23,3.3,5,.6,126.22,10.42,130,10.5C295.5,179.18,297,179,296.63,178.65Zm6.75-4.65a10.38,10.38,0,0,1,4.65-2.32c2.85-.75,3.3-1.2,3.9-3.6,6.75-26,25-96,25.27-96.9s-.52-1.73-2.17-2.7a12.3,12.3,0,0,1-4-4.5l-1.42-3L250.88,83.25c-64.43,18.3-78.75,22.58-78.75,23.63s17.92,10.57,64.5,34.87c35.47,18.53,64.72,33.68,64.95,33.68S302.63,174.83,303.38,174Zm-155.7-15.75c1,0,1.57-.67,1.87-2,.75-3.53,6.45-37.28,6.45-38.1,0-.38-1-1.43-2.17-2.18a11.8,11.8,0,0,1-5-8.1c-.3-1.65-1-2.92-1.8-3.15C136.35,101.63,82.5,87,81.83,87s-.83.38-.68.83,14.25,16.8,31.35,36.3c26.18,29.92,31.2,35.4,32.33,34.8A7.44,7.44,0,0,1,147.68,158.25Zm103.2-79.87c55.57-15.6,79-22.5,79.5-23.4.45-.68,1.8-2.4,3.07-3.9l2.33-2.63-2.25-5.1C331,37.58,331.65,38,318.15,32.93a219.62,219.62,0,0,0-73.8-13.73c-7.27,0-13.35.08-13.57.3-6.68,8-61.28,79-61.28,79.73,0,1.35.68,2,1.73,1.57C171.75,100.65,207.6,90.53,250.88,78.38ZM152,98.18A11.26,11.26,0,0,1,162,94.88l3.45.45L194,58.8c15.6-20.1,28.88-37.2,29.4-37.95,1-1.27.75-1.35-3.37-.9-48,4.88-95,26-129.9,58.2L85.5,82.43l3.15.9C109,88.88,149,99.68,149.7,99.68,150.15,99.75,151.13,99,152,98.18ZM363,56c0-.37-16.72-10.35-20.85-12.37-1.8-1-3.45-1.5-3.67-1.35a5.88,5.88,0,0,0,.82,2.7c.9,1.65,2,2.47,4.43,3.15A13.69,13.69,0,0,1,349.8,52c2.63,2.77,3.3,3.07,7.88,3.52,2.7.3,5,.6,5.17.68S363,56.1,363,56Z" transform="translate(-3.73 -5.03)"/></g><path class="cls-2" d="M891.58,239.08a9.09,9.09,0,0,1,6.38,2.18,14.53,14.53,0,0,1,3.63,5.33,25.5,25.5,0,0,1,1.62,6.82,67.51,67.51,0,0,1,.38,6.82v6.64A132,132,0,0,0,917,279.36,122.83,122.83,0,0,0,935.6,292a125.07,125.07,0,0,0,22.89,9.79,86.76,86.76,0,0,0,26.39,3.93,79.73,79.73,0,0,0,28.14-4.9,102.43,102.43,0,0,0,24.39-13,133.3,133.3,0,0,0,20.77-18.61,196.55,196.55,0,0,0,17.13-21.76,234.53,234.53,0,0,0,13.51-22.46q5.87-11.17,10.13-20.62T1105.7,188q2.5-6.9,3.51-9.53,6.49-18.52,11.13-35.48a126.52,126.52,0,0,0,4.62-33.38c0-2.68-1.16-4.19-3.5-4.54l-62,12.23a45.58,45.58,0,0,1-8.51,1q-9.51,0-15.88-4.19a13.57,13.57,0,0,1-6.38-12.06q0-7.87,2.12-12.67a14.74,14.74,0,0,1,6.76-7.26,33.53,33.53,0,0,1,12.13-3.23,180.27,180.27,0,0,1,18.26-.79h3.5c4-.58,9.13-1.39,15.39-2.44s13.21-2.24,20.88-3.59,15.85-2.79,24.52-4.36,17.42-3.15,26.26-4.72,17.64-3.12,26.39-4.64,17-2.91,24.64-4.19c.5-.11,2.17-.41,5-.87s6-1,9.5-1.49l10-1.48a54.22,54.22,0,0,1,6.25-.7,12.43,12.43,0,0,1,5.5,1.22,13.17,13.17,0,0,1,4.13,3.06,15.39,15.39,0,0,1,2.63,4.19,11.6,11.6,0,0,1,1,4.46c0,3.49-1.92,6.53-5.76,9.09a60.21,60.21,0,0,1-14.5,6.73,178.78,178.78,0,0,1-19.14,5.06l-19.39,4.11q-9,1.94-15.38,3.76t-7.13,4.11q-1.26,7.68-2.5,17.12t-2.75,18q-.51,2.08-2.13,10.13t-4.5,19.58q-2.88,11.53-7,25.25t-9.38,27a245.92,245.92,0,0,1-15.14,30.94,225.42,225.42,0,0,1-51.4,61.08,158.08,158.08,0,0,1-35.27,22.28q-4.51,1.94-10.51,3.85a116.81,116.81,0,0,1-13.13,3.32q-7.14,1.39-15,2.27a142.41,142.41,0,0,1-15.63.88,177.22,177.22,0,0,1-28.15-2.45,241,241,0,0,1-30.39-7A233.5,233.5,0,0,1,900,316.77a152.43,152.43,0,0,1-25.14-14.16,74.55,74.55,0,0,1-17.51-16.69,31.23,31.23,0,0,1-6.5-18.7,35.4,35.4,0,0,1,2.12-12.94,18.8,18.8,0,0,1,6.88-8.73,33.31,33.31,0,0,1,12.63-4.9A99.51,99.51,0,0,1,891.58,239.08Z" transform="translate(-3.73 -5.03)"/><path class="cls-2" d="M1213.52,251a16.63,16.63,0,0,1,5.75-12.76q5.74-5.23,15.26-7,2.74-3.84,8.5-10.4a180.22,180.22,0,0,1,14.26-14.24,218.75,218.75,0,0,1,19.39-15.47,165.88,165.88,0,0,1,24-14.15,156.81,156.81,0,0,1,28.27-10.4,124.68,124.68,0,0,1,32.14-4,115.16,115.16,0,0,1,25.27,2.45,57.81,57.81,0,0,1,17.75,6.81,30.5,30.5,0,0,1,10.51,10.4,25.53,25.53,0,0,1,3.5,13,29.33,29.33,0,0,1-2.25,11.36q-3.51,9.8-13,17.13a102.15,102.15,0,0,1-22.38,12.84,177.67,177.67,0,0,1-28,9.18q-15.13,3.67-30.27,6.12t-29.14,3.76q-14,1.31-24.26,2a30,30,0,0,0-3.88,7.95,28.92,28.92,0,0,0-1.63,9.35q0,10.14,11.51,15.73t31.77,5.59a133.06,133.06,0,0,0,22.51-1.84,171.66,171.66,0,0,0,20.39-4.71q9.63-2.9,18.13-6.3t15.51-6.72q9-4.2,17.14-7.08a43.54,43.54,0,0,1,14.38-2.89q6.25,0,8,2.19a7.29,7.29,0,0,1,1.76,4.63c0,.93-.05,1.83-.13,2.71a12.71,12.71,0,0,1-.37,2.18,24.89,24.89,0,0,1-5,9.09,34.7,34.7,0,0,1-9.5,7.87A201.25,201.25,0,0,1,1356,315.8a267.4,267.4,0,0,1-58.41,6.12q-6,0-14.13-.52a149.81,149.81,0,0,1-16.88-2.1,112.51,112.51,0,0,1-17.26-4.54,56.82,56.82,0,0,1-15.14-7.87,39,39,0,0,1-10.75-12.06q-4.14-7.15-4.13-17.3a60.6,60.6,0,0,1,3.25-18.35,13,13,0,0,1-6.13-2.36A6.68,6.68,0,0,1,1213.52,251Zm156.59-48.41a3.25,3.25,0,0,0,.5-1.57v-1.57q0-4.72-5-7.08a27.86,27.86,0,0,0-12-2.36,60.7,60.7,0,0,0-21.64,4,106.45,106.45,0,0,0-20,10A111.52,111.52,0,0,0,1295.31,217a90.18,90.18,0,0,0-11.25,12.5q18-1,33-3.41a173.9,173.9,0,0,0,26.14-5.94,76.55,76.55,0,0,0,18-8Q1368.11,207.63,1370.11,202.55Z" transform="translate(-3.73 -5.03)"/><path class="cls-2" d="M1475.17,300.42q3.24-12.23,7.5-26.91t8.75-29.71q4.51-15,8.76-29.54t7.25-26.56a23.16,23.16,0,0,1-.25-3.06v-2.89a60.12,60.12,0,0,1,1-10.83,56,56,0,0,1,2.76-10q2.74-6.65,6.12-9c2.26-1.58,5.88-2.36,10.89-2.36q7.24,0,11.63,2a16.9,16.9,0,0,1,10.13,12.93,51.13,51.13,0,0,1,.75,8.82c0,1.64-.09,3.44-.25,5.42s-.25,3.56-.25,4.72q7-5.07,14.88-10.4a134.39,134.39,0,0,1,16.76-9.61,116.4,116.4,0,0,1,18.76-7.08,75.62,75.62,0,0,1,20.64-2.79,66.39,66.39,0,0,1,8.38.52q4.13.53,8.38,1.4,5,.87,10.38,2.36a53,53,0,0,1,10.38,4.1,47.22,47.22,0,0,1,13.88,10.93q5.64,6.56,5.63,13.37a13,13,0,0,1-1.5,5.68,19.8,19.8,0,0,1-4.13,5.59,22.92,22.92,0,0,1-6.12,4.2,18,18,0,0,1-7.76,1.66,45.32,45.32,0,0,1-10.38-1.49A35.34,35.34,0,0,1,1638,198a18.4,18.4,0,0,1-3.63-3q-1.87-1.92-3.5-3.85t-3-3.58a13.07,13.07,0,0,0-2.13-2.19c-.83-.11-1.75-.2-2.75-.26s-1.92-.09-2.75-.09a65.37,65.37,0,0,0-24.26,4.55,118.47,118.47,0,0,0-21.52,11.1,158.66,158.66,0,0,0-18.38,14q-8.38,7.43-14.64,13.37-5,14.16-11.13,30.15t-12.13,33.47v4.36q0,5.25-.5,10.67a22.77,22.77,0,0,1-3,9.61,22.34,22.34,0,0,1-7.88,4.46,35.3,35.3,0,0,1-11.88,1.83q-10.52,0-15.76-4.81a14.82,14.82,0,0,1-5.25-11.27A16.41,16.41,0,0,1,1475.17,300.42Z" transform="translate(-3.73 -5.03)"/><path class="cls-2" d="M1684.79,251a16.63,16.63,0,0,1,5.75-12.76q5.74-5.23,15.26-7,2.75-3.84,8.5-10.4a180.22,180.22,0,0,1,14.26-14.24A218.75,218.75,0,0,1,1748,191.1,165.88,165.88,0,0,1,1772,177a156.81,156.81,0,0,1,28.27-10.4,124.73,124.73,0,0,1,32.14-4,115.16,115.16,0,0,1,25.27,2.45,58,58,0,0,1,17.76,6.81,30.55,30.55,0,0,1,10.5,10.4,25.43,25.43,0,0,1,3.5,13,29.33,29.33,0,0,1-2.25,11.36q-3.5,9.8-13,17.13a102.15,102.15,0,0,1-22.38,12.84,177.33,177.33,0,0,1-28,9.18q-15.13,3.67-30.27,6.12t-29.14,3.76q-14,1.31-24.26,2a30,30,0,0,0-3.88,7.95,28.92,28.92,0,0,0-1.63,9.35q0,10.14,11.51,15.73t31.77,5.59a133,133,0,0,0,22.51-1.84,171.66,171.66,0,0,0,20.39-4.71q9.63-2.9,18.14-6.3t15.5-6.72q9-4.2,17.14-7.08a43.59,43.59,0,0,1,14.38-2.89q6.25,0,8,2.19a7.34,7.34,0,0,1,1.75,4.63c0,.93-.05,1.83-.13,2.71a12.71,12.71,0,0,1-.37,2.18,24.75,24.75,0,0,1-5,9.09,34.7,34.7,0,0,1-9.5,7.87,201.25,201.25,0,0,1-53.41,20.44,267.4,267.4,0,0,1-58.41,6.12q-6,0-14.13-.52a149.81,149.81,0,0,1-16.88-2.1,112.51,112.51,0,0,1-17.26-4.54,57,57,0,0,1-15.14-7.87,39,39,0,0,1-10.75-12.06q-4.12-7.15-4.13-17.3a60.6,60.6,0,0,1,3.25-18.35,13,13,0,0,1-6.13-2.36A6.68,6.68,0,0,1,1684.79,251Zm156.59-48.41a3.25,3.25,0,0,0,.5-1.57v-1.57q0-4.72-5-7.08a27.83,27.83,0,0,0-12-2.36,60.74,60.74,0,0,0-21.64,4,106.45,106.45,0,0,0-20,10A111.52,111.52,0,0,0,1766.58,217a90.18,90.18,0,0,0-11.25,12.5q18-1,33-3.41a174.47,174.47,0,0,0,26.14-5.94,76.93,76.93,0,0,0,18-8Q1839.37,207.63,1841.38,202.55Z" transform="translate(-3.73 -5.03)"/><path class="cls-2" d="M2074.76,205.35q-14.27,47-14.26,62.22,0,4.89-8.88,8a53.39,53.39,0,0,1-17.88,3.14q-10,0-16.26-3.49t-6.26-8.74q0-18.7,14.26-60.12-35.26.53-61,2.44-15,1-20.27,1-14.25,0-14.25-17.48,0-6.81,13.88-10.83t93.18-4.89q25-59.25,31.77-66.33t19.76-7.08q20.51,0,20.51,6.82,0,3.66-3.75,11.18T2084,175.64q47.27-1,77.79-1,19.52,0,19.51,13.63,0,16.08-28.77,16.08Q2120,204.3,2074.76,205.35Z" transform="translate(-3.73 -5.03)"/><path class="cls-1" d="M714.6,368.43h34v1.81c-9.93.45-11.71.9-11.71,6.66V388c2.54-.13,5.47-1.17,9.17-3,7.13-3.43,15.66-7.83,21.52-11.19,3.83-2.2,3.44-3-2-3.43l-3.57-.19v-1.81h31v1.81c-9.55.58-12.86.9-21.4,5.37-3.82,1.87-13.75,6.79-21.91,10.86,9.68,5.82,23.82,14.1,30.45,17.66s8.15,4.08,16,4.53v1.81H775.75c-9.81-5.63-20.13-11.9-31.72-18.76a11.48,11.48,0,0,0-7.13-1.87v12.29c0,5.62,1.14,6.08,11.71,6.53v1.81h-34v-1.81c10.45-.45,11.47-.91,11.47-6.53V376.9c0-5.82-.89-6.27-11.47-6.66Z" transform="translate(-3.73 -5.03)"/><path class="cls-1" d="M890.26,370.24c-8.15.45-10.82,1.1-11.21,4.07-.12,2.07-.38,4.79-.38,10.81v25.93h-4.84l-54.52-33.83v16.17A69.9,69.9,0,0,0,820,404c.25,3.3,3.44,4.27,12.61,4.66v1.81H801.61v-1.81c7.89-.32,10.95-1.29,11.46-4.46a61.12,61.12,0,0,0,.64-10.87V376.84c0-1.81-.26-2.85-2.55-4.27-2.42-1.62-5.1-2-11.34-2.33v-1.81h19.11l54,32.53V385.12c0-6-.26-8.8-.64-10.74-.38-2.91-3.31-3.82-13.5-4.14v-1.81h31.46Z" transform="translate(-3.73 -5.03)"/><path class="cls-1" d="M943.26,367.52c21.78,0,41.27,8.48,41.27,21.35,0,13.9-18.6,22.57-42,22.57-24.46,0-42.29-9.44-42.29-21.6C900.2,378.26,916.38,367.52,943.26,367.52Zm-2.55,2.4c-14.27,0-27.26,6.08-27.26,18.17s13,20.89,31.08,20.89c15.41,0,27-5.82,27-18.3C971.53,377.09,957.39,369.92,940.71,369.92Z" transform="translate(-3.73 -5.03)"/><path class="cls-1" d="M1111.53,370.24c-8.92.65-10.19,1.16-13.63,6.47-4.21,6.46-14.4,22.89-21.4,34.47h-4.33c-6.63-10.09-15.16-22.57-21.79-32.14-7.38,11.12-14.9,22.18-21.52,32.14h-4.21c-6.37-11.12-13.63-23.22-20.5-34.54-3.32-5.24-4.72-5.95-13-6.4v-1.81h31.47v1.81c-9.43.52-9.69,1.23-7.9,4.46,5,8.73,10.06,17.34,15.28,26.46,7-10.29,14.65-21.54,21.15-32.15h4.07c7.14,11,14.27,21.22,21.66,32.21,5.35-8.6,12.61-20.11,15.41-25.74,1.91-3.75.89-4.59-9.93-5.24v-1.81h29.17Z" transform="translate(-3.73 -5.03)"/><path class="cls-1" d="M1181.21,399.73a112.51,112.51,0,0,1-5.86,10.74h-59.24v-1.81c11.6-.58,12.61-.91,12.61-6.4V376.58c0-5.5-1.27-5.82-11.46-6.34v-1.81h34.14v1.81c-10.19.52-11.59.77-11.59,6.34V402.9c0,4,1,4.85,8.28,4.92l10.06.06c6.5,0,8.41-.38,11.34-2a25.79,25.79,0,0,0,7.77-6.66Z" transform="translate(-3.73 -5.03)"/><path class="cls-1" d="M1255.72,400.19c-.76,1.68-4.2,8.34-5.47,10.28h-61.91v-1.81c11.85-.45,12.74-1,12.74-6.34V376.77c0-5.76-1.4-6.08-11-6.53v-1.81h39c12,0,16.94-.07,18.47-.13.13,1.62.64,6.47,1.15,9.89l-3.82.33a18.21,18.21,0,0,0-3.82-4.92c-2-2.13-5-2.59-12.62-2.59h-12.1c-3.94,0-4.2.2-4.2,2.07v14.3h14.14c9.55,0,10.19-1,11.72-5.37h4v13.32h-4c-1.66-4.65-2.68-5.3-11.85-5.3h-14V402.9c0,4.53,2.8,4.92,9.17,5h11.85c7.77,0,9-.58,11.84-2.26a32.33,32.33,0,0,0,6.88-5.95Z" transform="translate(-3.73 -5.03)"/><path class="cls-1" d="M1300.05,368.43c18,0,29.3,1.81,37.2,5.62,6.24,3.11,10.83,7.64,10.83,13.85,0,7.56-6.12,13.71-15.93,17.46s-22,5.11-37.7,5.11h-29.81v-1.81c11-.52,11.47-1,11.47-6.27V376.58c0-5.57-1.53-5.82-11.47-6.34v-1.81Zm-12.86,33.44c0,4.85,4.07,6.21,13.63,6.21,22.93,0,34.65-8,34.65-19.28,0-7.05-4.72-12.42-14.78-15.52-5.86-1.88-13.25-2.59-21.78-2.59-5.73,0-8.79.39-10.07.91s-1.65,1.1-1.65,3.62Z" transform="translate(-3.73 -5.03)"/><path class="cls-1" d="M1445.27,392.81c-7.9.52-8.41.91-8.41,4.72V403a18.32,18.32,0,0,0,.77,6.14c-7.9.91-18.22,2.33-28.92,2.33-28.92,0-46.49-9.12-46.49-22.12,0-13.65,21.91-21.8,47.38-21.8a252.27,252.27,0,0,1,26.5,1.62,81,81,0,0,0,1.91,10.41l-3.82.39c-3.06-5.5-6.75-7.83-14.78-9.18a82,82,0,0,0-11.85-.84c-19.48,0-32.1,6.79-32.1,18.62,0,10.29,10.45,20.51,35.16,20.51a47.86,47.86,0,0,0,10.83-1.1c2.67-.78,4.33-1.49,4.33-4.14V398.5c0-4.72-1-5.23-13.25-5.69v-1.87h32.74Z" transform="translate(-3.73 -5.03)"/><path class="cls-1" d="M1521.32,400.19c-.77,1.68-4.21,8.34-5.48,10.28h-61.91v-1.81c11.85-.45,12.74-1,12.74-6.34V376.77c0-5.76-1.4-6.08-11-6.53v-1.81h39c12,0,17-.07,18.48-.13.12,1.62.63,6.47,1.14,9.89l-3.82.33a18.21,18.21,0,0,0-3.82-4.92c-2-2.13-5-2.59-12.61-2.59H1482c-4,0-4.21.2-4.21,2.07v14.3h14.14c9.56,0,10.19-1,11.72-5.37h4v13.32h-4c-1.65-4.65-2.67-5.3-11.85-5.3h-14V402.9c0,4.53,2.81,4.92,9.17,5h11.85c7.77,0,9-.58,11.85-2.26a32.57,32.57,0,0,0,6.88-5.95Z" transform="translate(-3.73 -5.03)"/><path class="cls-1" d="M1636.34,400.12a64.49,64.49,0,0,1-7,9.77,223.22,223.22,0,0,1-23.31,1.55c-30.45,0-46-10.28-46-21.6,0-13.2,19.75-22.32,48.28-22.32,11,0,19.87,1.17,24.07,1.49a84.81,84.81,0,0,0,2.42,10l-4,.45c-2.54-4.34-5.6-7-12.1-8.35a66.06,66.06,0,0,0-13.37-1.22c-21,0-32.1,7.89-32.1,18.56,0,12.48,12.74,20.5,33.37,20.5,13,0,19.36-3,25.86-9.51Z" transform="translate(-3.73 -5.03)"/><path class="cls-1" d="M1691.88,367.52c21.78,0,41.27,8.48,41.27,21.35,0,13.9-18.6,22.57-42,22.57-24.45,0-42.29-9.44-42.29-21.6C1648.82,378.26,1665,367.52,1691.88,367.52Zm-2.55,2.4c-14.27,0-27.26,6.08-27.26,18.17s13,20.89,31.08,20.89c15.42,0,27-5.82,27-18.3C1720.16,377.09,1706,369.92,1689.33,369.92Z" transform="translate(-3.73 -5.03)"/><path class="cls-1" d="M1816.33,410.47v-1.81c10.45-.52,10.83-.91,10.7-7.83l.13-26.39c-10.45,11.84-27.26,30.34-31.72,36h-3.31c-4.33-5.89-18.73-23.67-28.41-35.38-2.16,22.64-2.29,27.75-2.29,29,.13,3.62,3.31,4.14,12,4.59v1.81h-30.19v-1.81c7.39-.39,10.45-1.16,11.47-4.66.76-2.84.89-5.17,4.2-28.78.51-3.36-.76-4.46-12-5v-1.81h22.16l28.15,32.79,30.19-32.79h22.3v1.81c-11,.65-12.36,1.23-12.11,5.76l.51,24.83c.51,6.92.89,7.25,12.1,7.83v1.81Z" transform="translate(-3.73 -5.03)"/><path class="cls-1" d="M1931.49,410.47v-1.81c10.44-.52,10.82-.91,10.7-7.83l.12-26.39c-10.44,11.84-27.26,30.34-31.71,36h-3.32c-4.33-5.89-18.72-23.67-28.4-35.38-2.17,22.64-2.3,27.75-2.3,29,.13,3.62,3.32,4.14,12,4.59v1.81h-30.19v-1.81c7.39-.39,10.44-1.16,11.46-4.66.77-2.84.9-5.17,4.21-28.78.51-3.36-.77-4.46-12-5v-1.81h22.17l28.15,32.79,30.19-32.79h22.29v1.81c-11,.65-12.36,1.23-12.1,5.76l.51,24.83c.51,6.92.89,7.25,12.1,7.83v1.81Z" transform="translate(-3.73 -5.03)"/><path class="cls-1" d="M2062.69,370.24c-8,.26-11,1.29-11.21,4.27-.13,1.49-.38,4.2-.38,10.15v7c0,6.6-1.53,11.64-8.92,15.59-6,3.17-14.65,4.14-23.43,4.14-7.39,0-15.29-.78-20.9-3-7.64-3-11.33-7.44-11.33-15V376.9c0-5.82-1-6.21-11.21-6.66v-1.81h33.5v1.81c-10.19.32-11.21.84-11.21,6.66v16.17c0,9.44,8.79,14.62,24.07,14.62,18.09,0,23.82-5.69,23.82-16.43v-6.6a61.23,61.23,0,0,0-.63-10.15c-.38-2.91-3.31-4-12.74-4.27v-1.81h30.57Z" transform="translate(-3.73 -5.03)"/><path class="cls-1" d="M2157.85,370.24c-8.16.45-10.83,1.1-11.21,4.07-.13,2.07-.39,4.79-.39,10.81v25.93h-4.83l-54.52-33.83v16.17a71.86,71.86,0,0,0,.63,10.61c.26,3.3,3.44,4.27,12.61,4.66v1.81h-30.95v-1.81c7.9-.32,10.95-1.29,11.46-4.46a60.13,60.13,0,0,0,.64-10.87V376.84c0-1.81-.25-2.85-2.55-4.27-2.42-1.62-5.09-2-11.33-2.33v-1.81h19.1l54,32.53V385.12c0-6-.25-8.8-.63-10.74-.39-2.91-3.32-3.82-13.51-4.14v-1.81h31.47Z" transform="translate(-3.73 -5.03)"/><path class="cls-1" d="M2168,410.47v-1.81c10.44-.58,11.46-.84,11.46-6.34V376.64c0-5.56-1-5.82-11.46-6.4v-1.81h34.14v1.81c-10.58.58-11.6.84-11.6,6.4v25.68c0,5.56,1,5.76,11.6,6.34v1.81Z" transform="translate(-3.73 -5.03)"/><path class="cls-1" d="M2281.53,378.58a20.22,20.22,0,0,0-4.07-5.37c-2-1.74-3.31-2.2-10.32-2.2H2254.4v31.5c0,5.05,1,5.76,13.12,6.15v1.81h-37.07v-1.81c11.85-.39,12.87-1,12.87-6.15V371h-11.59c-7,0-9.05.39-11.21,2.33a25.74,25.74,0,0,0-4.21,5.24h-3.82c.77-3.94,1.53-8,1.91-11.64h2.93c1.91,1.55,3.32,1.49,6.88,1.49h50.45c3.56,0,4.58-.26,6.49-1.49h3.06a79.2,79.2,0,0,0,1.14,11.45Z" transform="translate(-3.73 -5.03)"/><path class="cls-1" d="M2372.87,370.24c-8.92.52-10.45,1.23-15.54,5.37-5.74,4.72-10.45,9.18-16.69,14.94-1.53,1.49-1.91,2.26-1.91,3.82v7.95c0,5.37,1.15,5.76,13,6.34v1.81h-36.56v-1.81c11.59-.78,12.49-.91,12.49-6.34V394c0-1.3-.51-1.88-2.55-3.75-4.46-4.21-8.79-8.28-15.67-14.36-5-4.4-6.24-5.18-14.9-5.63v-1.81h31.33v1.81c-9.17.65-8.66,1.49-6.37,3.69,5.35,5,11.34,10.8,16.69,15.65,4.59-4.33,11.85-11.39,15.41-14.94,2.93-3.24,2.55-3.88-7.51-4.4v-1.81h28.79Z" transform="translate(-3.73 -5.03)"/></svg>